<svg xmlns="http://www.w3.org/2000/svg" viewBox="0 0 69.03 128.48"><defs><style>.cls-1{fill:#3c3c3b}</style></defs><g id="Layer_2" data-name="Layer 2"><g id="Objects"><path d="M69,91.82c-.52-9.48-6.43-18.22-10.9-26.3C54,58.11,49.65,50.79,44.92,43.75A174.55,174.55,0,0,1,67.7,12.84C68.77,11.67,67,9.92,66,11.09l-.06.08a.94.94,0,0,0-.52.2,130.29,130.29,0,0,0-25.5,25A107.39,107.39,0,0,0,26.59,20.75q-3.54-3.67-7.38-7.09l8,2.29a1.22,1.22,0,0,0,1.27-.32,1.07,1.07,0,0,0,.72-.46l.48.12a1.29,1.29,0,0,0,1-.11l.17,0a1.33,1.33,0,0,0,.7-2.56c-1.29-.4-2.6-.78-3.9-1.15A188.24,188.24,0,0,1,6.07,2.36c-.16-.31-.32-.62-.5-.93a1.24,1.24,0,0,0-1.89-.3C3.07.81,2.46.5,1.85.17a1.27,1.27,0,0,0-1.53,2,17.35,17.35,0,0,1,1.93,3A1.07,1.07,0,0,0,1.8,6C.55,6.1.31,8.3,1.67,8.51l1,.16c3.07,8.4,6.38,16.79,11.85,24a1.1,1.1,0,0,0,1.9-1.11L16,30.75c1,.73,2.4-.61,1.78-1.75-1.78-3.3-3.55-6.6-5.21-10-.7-1.8-1.34-3.63-2-5.46A203.3,203.3,0,0,1,36.75,40.67a95.73,95.73,0,0,0-7,12,77.73,77.73,0,0,0-7.49,25.18,89.61,89.61,0,0,0,.86,23.07c-.82,6.27-.64,12.61,2.43,18.33,9.06,16.87,30.79,7.82,38.7-5.1a30.13,30.13,0,0,0,4.54-17.23A28.27,28.27,0,0,0,69,91.82ZM9.75,6.92,8,6.43c-.06-.15-.13-.29-.19-.43Zm.48,5.51-.52-1.5,1.56.45A1.42,1.42,0,0,0,10.23,12.43Zm2.12-.62,0,0h0l-.19-.15,1,.28c.87.62,1.72,1.25,2.56,1.9a1.43,1.43,0,0,0,.26.3A134.07,134.07,0,0,1,28.76,26.89,132,132,0,0,0,12.35,11.81ZM43.81,35.43c-.76,1.14-1.49,2.29-2.2,3.46l-.22-.32C42.18,37.51,43,36.46,43.81,35.43ZM40.6,45.64l.06.09a157.85,157.85,0,0,0-7.42,17c-.12.31-.23.63-.34.94.66-2,1.37-4,2.12-5.94A109,109,0,0,1,40.6,45.64ZM24.92,91.41l0,.08-.18.8a74.94,74.94,0,0,1,0-13.23A73.47,73.47,0,0,1,31.2,55.61a91.68,91.68,0,0,1,7.21-12.83l.54.69a114.75,114.75,0,0,0-5.67,11.9C28.87,66.24,25.45,79,24.92,91.41Zm3,22.13a18,18,0,0,0,8,9.09,9.43,9.43,0,0,1-4.23-2A13.53,13.53,0,0,1,28,113.54Zm7.7,11.59c.45.09.91.18,1.4.24a40.56,40.56,0,0,0,8.69.11A18,18,0,0,1,35.66,125.13ZM52,119.58a17.34,17.34,0,0,1-8.31,2.26,14.36,14.36,0,0,1-4.09-.53,15.65,15.65,0,0,1-8.17-9.16c-2.76-7.4-2.45-15.81-1.65-23.54a104.9,104.9,0,0,1,6-25.26,128.88,128.88,0,0,1,6.73-15.14q2,2.76,3.9,5.59c1,1.51,2,3.06,3,4.63,5.41,11.87,9.48,24.8,10.83,37.44C61.18,104.65,59.66,114.3,52,119.58Zm11.42-13.5c-.32.7-.66,1.39-1,2.08,1.92-8.39,0-17.41-2-25.59q-1.18-4.71-2.66-9.34C62.55,83.63,65.49,94.82,63.42,106.08Z" class="cls-1"/></g></g></svg>